# xmcd
#
# Track frame offsets:
#	150
#	11944
#	25550
#	39372
#	53317
#	68382
#	81393
#	94217
#	110896
#	125281
#	141034
#	159268
#	172781
#	192479
#	209374
#
# Disc length: 3106 seconds
#
# Revision: 0
# Processed by: cddbd v1.5.2PL0 Copyright (c) Steve Scherf et al.
# Submitted via: dBpowerAMP V4.0
#
DISCID=bb0c200f
DTITLE=Anne Nørdsti - Livli` på låven
DYEAR=2007
DGENRE=Danseband
TTITLE0=Jeg og du og vi to
TTITLE1=Jeg er nede
TTITLE2=Hvor tok alle åra veien
TTITLE3=Skyld ikke på meg
TTITLE4=Sommerkveld
TTITLE5=Tenk om du visste
TTITLE6=Bonderomantikk
TTITLE7=Jeg vil så gjerne reise hjem
TTITLE8=Reklame
TTITLE9=Jeg tenner et lys
TTITLE10=Dele natta med deg
TTITLE11=Harry
TTITLE12=Lykke til
TTITLE13=En time for sent
TTITLE14=Bygdeliv
EXTD=
EXTT0=
EXTT1=
EXTT2=
EXTT3=
EXTT4=
EXTT5=
EXTT6=
EXTT7=
EXTT8=
EXTT9=
EXTT10=
EXTT11=
EXTT12=
EXTT13=
EXTT14=
PLAYORDER=
